<?xml version="1.0" encoding="utf-8"?>
<!-- Generator: Adobe Illustrator 27.8.0, SVG Export Plug-In . SVG Version: 6.00 Build 0)  -->
<svg version="1.1" xmlns="http://www.w3.org/2000/svg" xmlns:xlink="http://www.w3.org/1999/xlink" x="0px" y="0px"
	 viewBox="0 0 146.4 146.3" style="enable-background:new 0 0 146.4 146.3;" xml:space="preserve">
<style type="text/css">
	.st0{display:none;}
	.st1{fill:#595858;}
</style>
<g id="Layer_2" class="st0">
</g>
<g id="Layer_1">
	<path class="st1" d="M100.4,29.3l-6.7,5.2c-1.2,1-1.9,2.5-1.6,4.1l0.5,3c-0.7-1.4-1.9-2.7-3.6-3.9c-4.6-3.1-10.8-3.9-14.7-4V32
		c0-2.5,1.1-4.9,2.9-6.4c0.2-0.2,0.4-0.3,0.6-0.5c1.4-1,3.5-1.5,5.9-1.5c0.2,0,0.4,0,0.5,0C90.2,23.8,96.2,26.7,100.4,29.3z
		 M106.5,33.7l-2.8,8c-0.5,1.5-1.8,2.6-3.4,2.8l-3,0.5c1.5,0.2,3.2,1,4.8,2.2c0.5,0.4,1,0.8,1.4,1.2c0.7-0.2,1.4-0.4,2.1-0.6
		c3.7-1,7.3-2.1,10.2-3C113.5,40.3,109.7,36.4,106.5,33.7z M32.5,79.9c0.7,0,1.4,0.2,2,0.5l2.7,1.4c-1.1-1.1-2-2.7-2.6-4.6
		c-0.4-1.5-0.7-3.1-0.7-4.7c-0.6-0.3-1.2-0.5-1.8-0.8c-3.5-1.5-6.6-3-9.2-4c-0.1,0.2-0.1,0.4-0.2,0.7C21,74,21.9,80.7,23,85.5l7-4.8
		C30.8,80.2,31.6,79.9,32.5,79.9z M39.6,92.6c-0.7-1.9-0.9-3.7-0.6-5.3l-1.4,2.7c-0.7,1.4-2.1,2.3-3.7,2.3l-8.5,0.2
		c1.9,4.6,5.1,10.4,9.8,14.1c2.1,1.7,4.2,2.6,6.1,2.6c0.3,0,0.5,0,0.8,0c2.4-0.2,4.6-1.4,6.1-3.5l1-1.3
		C46,102.1,41.4,97.8,39.6,92.6z M108.8,90.1l-1.4-2.7c0.3,1.5,0.1,3.3-0.6,5.3c-1.9,5.2-6.5,9.5-9.5,11.9l1,1.3
		c1.5,2.1,3.7,3.3,6.1,3.5c0.3,0,0.5,0,0.8,0c1.8-0.1,3.9-1,6.1-2.6c4.7-3.6,7.9-9.5,9.8-14.1l-8.5-0.2
		C111,92.4,109.5,91.5,108.8,90.1z M123.7,68.3c-0.1-0.2-0.1-0.5-0.2-0.7c-2.6,1.1-5.7,2.5-9.2,4c-0.6,0.3-1.2,0.5-1.8,0.8
		c-0.1,1.6-0.3,3.2-0.7,4.7c-0.6,2-1.5,3.6-2.6,4.6l2.7-1.4c0.6-0.3,1.3-0.5,2-0.5c0.9,0,1.7,0.3,2.4,0.8l7,4.8
		C124.5,80.7,125.4,74.1,123.7,68.3z M60.3,110.4c-3.8-1.1-7.3-3.1-9.6-4.6l-1,1.3c-1.5,2-2,4.6-1.4,6.9c0.1,0.3,0.1,0.5,0.2,0.8
		c0.6,1.7,2.1,3.5,4.4,5c2.4,1.7,5.3,2.8,8.1,3.6c-0.1-3.1-0.4-7-0.7-11C60.4,111.6,60.4,111,60.3,110.4z M96.6,107.1l-1-1.3
		c-2.3,1.5-5.8,3.5-9.6,4.6c0,0.7-0.1,1.3-0.1,1.9c-0.3,4-0.6,7.9-0.7,11c2.9-0.8,5.7-1.9,8.2-3.6c2.2-1.5,3.7-3.2,4.4-5
		c0.1-0.3,0.2-0.5,0.2-0.8C98.6,111.6,98,109.1,96.6,107.1z M42.7,41.7l-2.8-8c-3.2,2.7-7,6.6-9.3,11.2c2.9,0.9,6.5,1.9,10.2,3
		c0.7,0.2,1.4,0.4,2.1,0.6c0.4-0.4,0.9-0.8,1.4-1.2c1.6-1.2,3.3-2,4.8-2.2l-3-0.5C44.5,44.2,43.2,43.2,42.7,41.7z M69.2,25.6
		c-0.2-0.2-0.4-0.3-0.6-0.5c-1.4-1-3.5-1.5-5.9-1.5c-0.2,0-0.4,0-0.5,0c-5.9,0.2-12,3.1-16.2,5.6l6.7,5.2c1.3,1,1.9,2.5,1.6,4.1
		l-0.5,3c0.7-1.4,1.9-2.7,3.6-3.9c4.6-3.1,10.8-3.9,14.7-4V32C72.2,29.4,71.1,27.1,69.2,25.6z M60.1,106.6
		c-0.2-2.3-0.4-5.9-0.5-10.7c-5.1-3.1-9.1-7.9-11.2-13.5l-3.5,1.1c-1.7,0.5-3,1.7-3.6,3.3c-0.1,0.2-0.1,0.3-0.2,0.5
		c-0.4,1.2-0.2,2.8,0.4,4.6c1.9,5.2,6.8,9.5,9.6,11.6c2,1.4,5.3,3.5,9,4.6C60.1,107.6,60.1,107.1,60.1,106.6z M105.3,87.3
		c0-0.2-0.1-0.4-0.2-0.5c-0.6-1.5-1.9-2.8-3.6-3.3L98,82.3c-2.1,5.7-6.1,10.5-11.2,13.5c-0.1,4.8-0.3,8.5-0.5,10.7
		c0,0.5-0.1,1-0.1,1.6c3.7-1.2,7.1-3.3,9-4.7c2.8-2.1,7.7-6.4,9.6-11.6C105.5,90.1,105.6,88.5,105.3,87.3z M58.5,51.1
		c4.2-2.8,9.3-4.5,14.7-4.5c5.4,0,10.5,1.6,14.7,4.5l2.1-3c1-1.4,1.4-3.2,1-4.8l0,0c0-0.2-0.1-0.4-0.2-0.5c-0.4-1.2-1.5-2.4-3.1-3.5
		c-4.6-3.1-11.1-3.7-14.6-3.7c-3.5,0.1-10,0.6-14.6,3.7c-1.6,1.1-2.7,2.3-3.1,3.5c-0.1,0.2-0.1,0.4-0.2,0.5c-0.4,1.6-0.1,3.4,1,4.8
		L58.5,51.1z M101.1,49.1c-0.1-0.1-0.2-0.2-0.3-0.3c-1.5-1.2-3-1.8-4.3-1.9c-0.2,0-0.4,0-0.6,0c-1.7,0.1-3.2,1-4.3,2.4l-2.2,3
		c0.1,0.1,0.2,0.2,0.3,0.2c4.6-1.6,8.1-2.6,10.3-3.2C100.5,49.3,100.8,49.2,101.1,49.1z M109.1,74c-2.1,0.9-5.4,2.4-9.9,4.1
		c-0.1,0.7-0.3,1.5-0.5,2.2l3.5,1.1c1.7,0.5,3.5,0.4,4.9-0.5c0.2-0.1,0.3-0.2,0.5-0.3c1-0.8,1.8-2.2,2.4-4c0.3-1,0.5-2.1,0.6-3.1
		C110,73.6,109.5,73.8,109.1,74z M37.3,74c-0.4-0.2-0.9-0.4-1.3-0.6c0.1,1.1,0.3,2.1,0.6,3.1c0.5,1.8,1.4,3.2,2.4,4
		c0.1,0.1,0.3,0.2,0.5,0.3c1.4,0.9,3.2,1.1,4.9,0.5l3.5-1.1c-0.2-0.7-0.4-1.4-0.5-2.2C42.7,76.4,39.4,75,37.3,74z M54.7,49.4
		c-1-1.4-2.6-2.3-4.3-2.4c-0.1,0-0.2,0-0.4,0c-0.1,0-0.1,0-0.2,0c-1.3,0-2.8,0.7-4.3,1.9c-0.1,0.1-0.2,0.2-0.3,0.3
		c0.3,0.1,0.7,0.2,1,0.3C48.4,50,52,51,56.5,52.6c0.1-0.1,0.2-0.2,0.3-0.2L54.7,49.4z M55.3,56.6c-4,4.4-6.5,10.2-6.5,16.6
		c0,0.4,0,0.8,0,1.2c-4.4-1.7-7.7-3.1-9.9-4.1c-11.4-5-18.2-8.3-21.9-8.9c1.1-5.4,3-10.6,5.6-15.3c3.2,2,10.6,3.9,22.5,7.3
		C47.4,54,50.9,55,55.3,56.6z M43.7,60.2l-19.4-5.6c-0.8-0.2-1.2,0.9-0.5,1.2l18.4,8.2c1.1,0.5,2.3-0.1,2.8-1.2l0,0
		C45.4,61.8,44.8,60.6,43.7,60.2z M73.2,97.5c3.4,0,6.5-0.7,9.5-1.9c-0.1,4.7-0.3,8.3-0.5,10.7c-0.9,12.4-1.6,19.9-0.8,23.6
		c-2.7,0.4-5.4,0.6-8.1,0.6c-2.8,0-5.5-0.2-8.1-0.6c0.8-3.7,0-11.2-0.8-23.6c-0.2-2.4-0.4-6-0.5-10.7C66.6,96.9,69.8,97.5,73.2,97.5
		z M73.2,103.1L73.2,103.1c-1.2,0-2.1,1-2,2.2l1.4,20.1c0.1,0.8,1.3,0.8,1.3,0l1.4-20.1C75.3,104.1,74.4,103.1,73.2,103.1z
		 M129.3,61.4c-3.8,0.6-10.6,3.8-21.9,8.9c-2.2,1-5.5,2.4-9.9,4.1c0-0.4,0-0.8,0-1.2c0-6.4-2.5-12.2-6.5-16.6
		c4.4-1.5,7.9-2.5,10.2-3.2c11.9-3.4,19.2-5.3,22.5-7.3C126.3,50.8,128.2,56,129.3,61.4z M122.1,54.6l-19.4,5.6
		c-1.1,0.3-1.8,1.6-1.4,2.7l0,0c0.4,1.1,1.7,1.7,2.8,1.2l18.4-8.2C123.3,55.6,122.9,54.4,122.1,54.6z M114.3,133.7
		c-11.7,8-25.9,12.7-41.1,12.7c-15.2,0-29.4-4.7-41.1-12.7l1-0.8l10.6-8.2c8.7,5,18.8,7.9,29.5,7.9c10.7,0,20.8-2.9,29.5-7.9
		l10.6,8.2L114.3,133.7z M146.4,73.2c0,23.5-11.1,44.4-28.3,57.8l-0.4-1.2l-4.5-12.7c7.2-6.6,12.8-14.9,16.1-24.3l5.1,0.1l-4.2-2.9
		c1.6-5.4,2.5-11.1,2.5-17c0-19.2-9.2-36.3-23.4-47.2l1.7-4.8l-4,3.1c-7.9-5.5-17.3-9.1-27.3-10.2L75.8,1.2L75.5,0
		C114.8,1.2,146.4,33.6,146.4,73.2z M70.9,0l-0.4,1.2l-3.8,12.9c-10.1,1.1-19.4,4.7-27.3,10.2l-4-3.1l1.7,4.8
		c-14.2,10.9-23.4,28-23.4,47.2c0,5.9,0.9,11.6,2.5,17L12.1,93l5.1-0.1c3.3,9.4,8.9,17.7,16.2,24.3l-4.5,12.7l-0.4,1.2
		C11.1,117.6,0,96.6,0,73.2C0,33.6,31.6,1.2,70.9,0z M95.5,73.1c0,12.3-10,22.3-22.3,22.3c-12.3,0-22.3-10-22.3-22.3
		c0-12.3,10-22.3,22.3-22.3C85.5,50.8,95.5,60.8,95.5,73.1z M88.7,73.1c0-8.6-7-15.5-15.5-15.5c-8.6,0-15.5,7-15.5,15.5
		c0,8.6,7,15.5,15.5,15.5C81.7,88.7,88.7,81.7,88.7,73.1z M84.6,73.1c0-6.3-5.1-11.4-11.4-11.4c-6.3,0-11.4,5.1-11.4,11.4
		c0,6.3,5.1,11.4,11.4,11.4C79.5,84.5,84.6,79.4,84.6,73.1z M33.8,90.3c0.8,0,1.6-0.5,1.9-1.2l2.3-4.6l-4.6-2.3
		c-0.7-0.4-1.6-0.3-2.3,0.1L19,90.8L33.8,90.3z M44.7,41c0.3,0.8,0.9,1.3,1.8,1.5l5,0.8l0.8-5c0.1-0.8-0.2-1.6-0.8-2.1l-11.7-9
		L44.7,41z M95,36.1c-0.6,0.5-1,1.3-0.8,2.1l0.8,5l5-0.8c0.8-0.1,1.5-0.7,1.8-1.5l4.9-13.9L95,36.1z M115.2,82.4
		c-0.7-0.5-1.5-0.5-2.3-0.1l-4.6,2.3l2.3,4.6c0.4,0.7,1.1,1.2,1.9,1.2l14.8,0.4L115.2,82.4z M109.3,114.6c-0.3-0.9-1.1-1.5-2-1.7
		l-5.8-0.9l-0.9,5.8c-0.1,0.9,0.2,1.9,1,2.5l13.6,10.4L109.3,114.6z M44.9,120.3c0.8-0.6,1.1-1.5,1-2.5L45,112l-5.8,0.9
		c-0.9,0.1-1.7,0.8-2,1.7l-5.7,16.1L44.9,120.3z M68.4,18.4c-0.3,0.9,0,1.9,0.7,2.6l4.2,4.2l4.2-4.2c0.7-0.7,0.9-1.7,0.7-2.6L73.2,2
		L68.4,18.4z"/>
</g>
</svg>
