<?xml version="1.0" encoding="UTF-8"?><svg id="a" xmlns="http://www.w3.org/2000/svg" viewBox="0 0 222.6 222.6"><defs><style>.b{fill:#d41116;}.b,.c,.d,.e,.f,.g{stroke-width:0px;}.c{fill:#267c40;}.d{fill:#2b2b2b;}.e{fill:#277c40;}.f{fill:#fff;}.g{fill:#261f12;}</style></defs><path class="f" d="m111.3,0c-15.02,0-29.6,2.94-43.33,8.75-13.25,5.61-25.16,13.63-35.38,23.85-10.22,10.22-18.24,22.12-23.85,35.38C2.94,81.7,0,96.28,0,111.3s2.94,29.6,8.75,43.33c5.61,13.25,13.63,25.16,23.85,35.38,10.22,10.22,22.12,18.24,35.38,23.85,13.73,5.81,28.3,8.75,43.33,8.75s29.6-2.94,43.33-8.75c13.25-5.61,25.16-13.63,35.38-23.85,10.22-10.22,18.24-22.12,23.85-35.38,5.81-13.73,8.75-28.3,8.75-43.33s-2.94-29.6-8.75-43.33c-5.61-13.25-13.63-25.16-23.85-35.38-10.22-10.22-22.12-18.24-35.38-23.85C140.9,2.94,126.32,0,111.3,0h0Z"/><path class="b" d="m138.54,67.4l-6.74,5.19c-1.25.96-1.87,2.53-1.63,4.08l.48,3c-.68-1.39-1.91-2.72-3.6-3.87-4.56-3.11-10.8-3.89-14.71-4.04v-1.64c0-2.53,1.06-4.86,2.9-6.4.2-.17.42-.33.64-.48,1.42-.96,3.46-1.47,5.92-1.47.18,0,.36,0,.55,0,5.95.18,11.97,3.06,16.2,5.63Z"/><path class="b" d="m153.89,82.98c-2.89.92-6.49,1.94-10.18,2.99-.68.19-1.39.39-2.11.6-.45-.43-.92-.84-1.41-1.22-1.61-1.25-3.26-2.01-4.79-2.23l3-.47c1.56-.25,2.86-1.33,3.38-2.81l2.85-8.01c3.19,2.74,6.97,6.63,9.27,11.15Z"/><path class="b" d="m68.14,118.84l-7.01,4.8c-1.14-4.83-2.02-11.45-.35-17.15.07-.23.14-.45.21-.67,2.6,1.09,5.74,2.5,9.19,4.04.58.26,1.16.52,1.76.78.06,1.57.28,3.15.72,4.66.58,1.96,1.46,3.54,2.57,4.62l-2.71-1.38c-.6-.31-1.28-.47-1.95-.47-.87,0-1.72.26-2.44.76Z"/><path class="b" d="m87.21,142.68l-.96,1.33c-1.49,2.05-3.72,3.31-6.11,3.47-.26.02-.53.02-.8.01-1.84-.06-3.94-.96-6.08-2.62-4.71-3.64-7.88-9.51-9.8-14.08l8.49-.23c1.58-.04,3-.94,3.72-2.35l1.39-2.72c-.28,1.53-.06,3.33.63,5.27,1.86,5.2,6.45,9.5,9.52,11.92Z"/><path class="b" d="m150.64,130.56l8.49.23c-1.92,4.58-5.1,10.44-9.8,14.08-2.14,1.65-4.24,2.56-6.08,2.62-.26,0-.53,0-.8-.01-2.39-.16-4.62-1.42-6.11-3.47l-.96-1.33c3.06-2.41,7.66-6.71,9.52-11.92.69-1.93.91-3.73.63-5.26l1.38,2.71c.72,1.41,2.14,2.3,3.72,2.35Z"/><path class="b" d="m161.47,123.64l-7.01-4.8c-.72-.49-1.56-.76-2.44-.76-.68,0-1.35.17-1.95.47l-2.72,1.39c1.13-1.07,2.01-2.66,2.59-4.63.44-1.51.66-3.09.72-4.66.6-.27,1.19-.53,1.76-.79,3.45-1.54,6.58-2.95,9.19-4.03.07.21.14.44.21.67,1.67,5.71.79,12.33-.34,17.15Z"/><path class="b" d="m98.58,150.42c.29,4.01.57,7.9.69,11.01-2.86-.77-5.71-1.91-8.15-3.58-2.24-1.53-3.75-3.25-4.37-4.98-.09-.25-.17-.51-.23-.77-.59-2.32-.07-4.83,1.41-6.88l.96-1.33c2.3,1.54,5.76,3.52,9.55,4.6.04.65.09,1.29.14,1.92Z"/><path class="b" d="m136.08,152.11c-.06.25-.14.51-.23.77-.62,1.73-2.13,3.45-4.37,4.98-2.44,1.67-5.29,2.81-8.15,3.58.12-3.1.4-7,.69-11.01.04-.62.09-1.26.14-1.92,3.79-1.07,7.24-3.05,9.56-4.6l.96,1.33c1.49,2.05,2.01,4.56,1.41,6.88Z"/><path class="b" d="m84.2,82.65l2.99.47c-1.53.21-3.17.98-4.79,2.23-.49.38-.96.79-1.41,1.22-.72-.2-1.43-.4-2.11-.6-3.69-1.05-7.29-2.07-10.18-2.99,2.3-4.53,6.09-8.42,9.27-11.15l2.85,8.01c.53,1.49,1.83,2.56,3.39,2.81Z"/><path class="b" d="m110.26,70.11v1.64c-3.89.16-10.14.93-14.72,4.05-1.69,1.15-2.92,2.48-3.6,3.86l.47-2.99c.25-1.55-.38-3.12-1.63-4.08l-6.73-5.19c4.24-2.58,10.26-5.45,16.2-5.63.18,0,.37,0,.54,0,2.46,0,4.5.5,5.92,1.47.22.15.44.31.64.48,1.85,1.54,2.9,3.86,2.9,6.4Z"/><path class="b" d="m98.29,146.3c-3.71-1.18-7.05-3.26-9.03-4.64-2.8-2.11-7.77-6.4-9.63-11.59-.64-1.81-.8-3.42-.44-4.65.05-.18.11-.36.18-.53.62-1.55,1.94-2.75,3.62-3.3l3.46-1.13c2.11,5.69,6.11,10.46,11.24,13.54.07,4.82.32,8.47.48,10.74.04.53.07,1.05.11,1.55Z"/><path class="b" d="m142.96,130.06c-1.86,5.19-6.83,9.49-9.6,11.57-2,1.4-5.34,3.48-9.05,4.66.03-.51.07-1.03.11-1.55.16-2.27.4-5.92.48-10.74,5.13-3.08,9.14-7.86,11.24-13.54l3.46,1.13c1.68.55,3,1.75,3.62,3.3.07.17.13.35.18.53.36,1.24.21,2.84-.44,4.65Z"/><path class="b" d="m96.6,89.3c4.21-2.82,9.27-4.47,14.7-4.47s10.49,1.65,14.7,4.47l2.15-2.95c1.04-1.43,1.4-3.18.99-4.8h0c-.04-.18-.1-.36-.16-.53-.44-1.21-1.5-2.42-3.09-3.5-4.55-3.11-11.1-3.66-14.6-3.72-3.47.06-10.02.61-14.57,3.72-1.58,1.08-2.65,2.29-3.09,3.5-.06.18-.12.36-.16.53-.41,1.62-.05,3.37.99,4.8l2.15,2.95Z"/><path class="b" d="m138.24,87.53c-2.19.63-5.71,1.64-10.27,3.23-.1-.08-.19-.16-.3-.24l2.15-2.96c1.04-1.43,2.59-2.31,4.25-2.42.18,0,.37-.01.56,0,1.29.04,2.77.68,4.28,1.86.11.08.21.17.32.25-.33.1-.66.19-1,.29Z"/><path class="b" d="m148.51,111.61c-.1,1.06-.28,2.11-.58,3.12-.54,1.84-1.36,3.23-2.37,4.02-.15.12-.3.22-.46.32-1.41.89-3.19,1.09-4.87.54l-3.47-1.13c.2-.71.38-1.44.51-2.17,4.51-1.72,7.86-3.2,9.93-4.12.44-.19.87-.39,1.3-.58Z"/><path class="b" d="m85.31,116.31c.14.74.31,1.46.51,2.17l-3.47,1.13c-1.68.55-3.46.35-4.87-.54-.15-.1-.31-.2-.45-.32-1.02-.79-1.84-2.18-2.38-4.02-.3-1.01-.48-2.07-.58-3.13.43.19.86.39,1.31.58,2.08.93,5.43,2.41,9.93,4.12Z"/><path class="b" d="m94.92,90.53c-.1.08-.19.16-.29.24-4.56-1.59-8.08-2.6-10.27-3.23-.34-.1-.68-.19-1.01-.29.11-.08.21-.17.32-.25,1.52-1.17,3-1.82,4.28-1.86.06,0,.12,0,.18,0,.13,0,.25,0,.38.01,1.67.11,3.22.99,4.26,2.42l2.15,2.96Z"/><path class="d" d="m83.21,91.51c-11.93-3.43-19.25-5.3-22.49-7.29-2.55,4.74-4.45,9.88-5.58,15.3,3.75.56,10.57,3.83,21.93,8.87,2.21.98,5.5,2.43,9.86,4.09-.02-.39-.03-.79-.03-1.19,0-6.39,2.47-12.22,6.51-16.57-4.41-1.54-7.87-2.54-10.2-3.21Zm-.08,9.53h0c-.41,1.11-1.67,1.65-2.75,1.17l-18.43-8.18c-.75-.33-.34-1.47.45-1.24l19.37,5.58c1.14.33,1.76,1.55,1.36,2.66Z"/><path class="d" d="m101.84,133.79c.06,4.67.3,8.25.47,10.67.86,12.4,1.6,19.92.84,23.64,2.66.38,5.38.58,8.14.58s5.48-.2,8.14-.58c-.76-3.72-.02-11.24.84-23.64.17-2.41.41-6,.47-10.67-2.91,1.23-6.1,1.91-9.45,1.91s-6.55-.68-9.45-1.91Zm11.49,9.67l-1.38,20.11c-.06.82-1.27.82-1.32,0l-1.38-20.11c-.08-1.18.86-2.18,2.04-2.18h0c1.18,0,2.12,1,2.04,2.18Z"/><path class="d" d="m161.87,84.23c-3.24,1.98-10.56,3.86-22.49,7.29-2.33.67-5.79,1.67-10.2,3.21,4.04,4.36,6.51,10.18,6.51,16.57,0,.4-.01.8-.03,1.19,4.36-1.66,7.65-3.11,9.86-4.09,11.36-5.05,18.17-8.32,21.93-8.87-1.13-5.42-3.04-10.56-5.58-15.3Zm-1.22,9.81l-18.43,8.18c-1.08.48-2.35-.06-2.75-1.17h0c-.41-1.11.22-2.34,1.36-2.67l19.37-5.58c.79-.23,1.21.91.45,1.24Z"/><path class="d" d="m151.44,171.06l-10.63-8.18c-8.7,5-18.78,7.86-29.52,7.86s-20.81-2.86-29.52-7.86l-10.63,8.18-.97.75c11.73,8,25.89,12.67,41.12,12.67s29.39-4.68,41.12-12.67l-.97-.75ZM113.59,38.15l.36,1.2,3.79,12.85c10.07,1.08,19.39,4.7,27.32,10.19l4.03-3.1-1.7,4.79c14.2,10.88,23.36,28,23.36,47.22,0,5.91-.87,11.62-2.48,17l4.17,2.86-5.05-.14c-3.31,9.4-8.92,17.71-16.15,24.27l4.5,12.65.41,1.15c17.24-13.4,28.35-34.33,28.35-57.8,0-39.59-31.59-71.94-70.89-73.15ZM38.11,111.3c0,23.47,11.11,44.4,28.35,57.8l.41-1.15,4.5-12.65c-7.23-6.56-12.84-14.88-16.15-24.27l-5.05.14,4.17-2.86c-1.61-5.39-2.48-11.1-2.48-17.01,0-19.22,9.17-36.34,23.37-47.22l-1.71-4.79,4.03,3.1c7.93-5.49,17.25-9.11,27.32-10.19l3.79-12.85.36-1.2c-39.3,1.21-70.89,33.56-70.89,73.15Z"/><path class="d" d="m111.3,88.97c-12.31,0-22.33,10.02-22.33,22.33s10.02,22.33,22.33,22.33,22.33-10.02,22.33-22.33-10.02-22.33-22.33-22.33Zm0,37.84c-8.56,0-15.52-6.96-15.52-15.52s6.96-15.52,15.52-15.52,15.52,6.96,15.52,15.52-6.96,15.52-15.52,15.52Z"/><path class="d" d="m111.3,122.67c-6.27,0-11.37-5.1-11.37-11.37s5.1-11.37,11.37-11.37,11.37,5.1,11.37,11.37-5.1,11.37-11.37,11.37Z"/><path class="c" d="m57.13,128.9l12.18-8.35c.68-.46,1.55-.52,2.28-.15l4.55,2.32-2.32,4.55c-.37.73-1.11,1.2-1.93,1.22l-14.77.41Z"/><path class="c" d="m77.82,65.22l11.71,9.01c.65.5.97,1.31.84,2.12l-.8,5.05-5.05-.8c-.81-.13-1.48-.69-1.76-1.46l-4.95-13.92Z"/><path class="c" d="m144.78,65.22l-4.95,13.92c-.27.77-.95,1.33-1.76,1.46l-5.05.8-.8-5.05c-.13-.81.2-1.62.84-2.12l11.71-9.01Z"/><path class="c" d="m165.47,128.9l-14.77-.41c-.82-.02-1.56-.49-1.93-1.22l-2.32-4.55,4.55-2.32c.73-.37,1.6-.31,2.28.15l12.18,8.35Z"/><path class="e" d="m153.13,168.87l-13.56-10.43c-.75-.58-1.13-1.52-.98-2.46l.93-5.85,5.85.93c.94.15,1.72.8,2.03,1.69l5.73,16.12Z"/><path class="e" d="m69.47,168.87l5.73-16.12c.32-.89,1.1-1.54,2.03-1.69l5.85-.93.93,5.85c.15.94-.23,1.88-.98,2.46l-13.56,10.43Z"/><path class="e" d="m111.3,40.13l4.84,16.41c.27.91.02,1.89-.65,2.56l-4.19,4.19-4.19-4.19c-.67-.67-.92-1.65-.65-2.56l4.84-16.41Z"/><path class="d" d="m31.5,120.14l-14.98.78-.18-3.38,11.96-.62-.35-6.74,3.02-.16.53,10.12Z"/><path class="d" d="m30.85,109.02l-14.19-7.65.35-2.94,15.58-4.03-.4,3.38-8.2,2.02c-.27.05-.58.12-.95.2-.37.08-.76.16-1.16.24-.4.08-.79.15-1.15.22-.36.06-.67.11-.93.14l.05-.6c.32.12.64.26.98.41.34.15.67.3,1.01.47.34.16.67.33,1,.49.33.16.65.32.96.47l7.46,3.87-.4,3.32Zm-2.71-3.13l-2.51-1.4.81-6.79,2.77-.81-1.07,9Z"/><path class="d" d="m32.83,93.58l-14.3-4.51.91-2.88,12.98-4.47-.21.59c-.75-.13-1.48-.27-2.17-.42-.7-.14-1.43-.33-2.2-.55-.77-.22-1.62-.48-2.56-.77l-3.7-1.17.99-3.13,14.3,4.51-.92,2.92-13.18,4.61.3-.83c.9.18,1.65.33,2.24.46.59.13,1.08.24,1.48.33.4.1.75.19,1.07.27.32.09.65.18,1.01.3l4.96,1.57-1,3.17Z"/><path class="d" d="m40.73,73.7c-.51.99-1.15,1.81-1.91,2.46-.76.65-1.61,1.12-2.54,1.42-.93.29-1.9.39-2.92.28-1.01-.1-2.02-.42-3.03-.93-.98-.5-1.79-1.14-2.44-1.92s-1.13-1.64-1.43-2.58c-.3-.94-.41-1.92-.31-2.95.09-1.02.39-2.02.89-3,.33-.65.74-1.23,1.23-1.75.49-.52,1.03-.96,1.63-1.31.6-.35,1.21-.6,1.85-.73l1.13,2.95c-.68.2-1.28.48-1.79.85-.51.37-.92.85-1.23,1.45-.27.53-.44,1.08-.49,1.65-.05.57.01,1.12.2,1.66.18.54.47,1.03.86,1.48.39.45.9.83,1.5,1.15.62.32,1.23.51,1.82.58.59.06,1.16,0,1.7-.17s1.04-.47,1.49-.88c.45-.41.83-.92,1.15-1.53.21-.41.35-.82.44-1.24.08-.42.1-.85.06-1.29-.04-.44-.12-.84-.25-1.22l3.07-.25c.19.47.29,1.04.31,1.7.01.66-.07,1.36-.24,2.08-.17.72-.42,1.41-.76,2.06Z"/><path class="d" d="m43.26,68.29l-8.27-13.83,1.8-2.34,15.45,4.51-2.08,2.7-8.08-2.46c-.26-.09-.56-.19-.92-.32-.36-.12-.73-.25-1.12-.39-.39-.14-.76-.27-1.1-.4-.34-.13-.63-.25-.87-.36l.35-.49c.21.27.42.55.63.85.21.3.42.6.63.92.21.31.41.62.61.93.2.31.39.6.58.89l4.43,7.14-2.04,2.65Zm-.73-4.08l-1.44-2.49,4.17-5.41,2.8.72-5.53,7.18Z"/><path class="d" d="m56.81,52.82c-1.04.97-2.11,1.62-3.2,1.93-1.09.31-2.22.36-3.39.15l-.07-3.16c1.16.22,2.12.22,2.86,0,.74-.22,1.4-.6,1.97-1.14.31-.29.55-.59.72-.91.17-.31.25-.61.24-.9,0-.29-.11-.54-.31-.76-.16-.17-.33-.28-.53-.34-.19-.06-.41-.08-.64-.06-.23.02-.48.07-.75.16-.27.08-.54.2-.82.35-.28.15-.57.32-.87.5-.7.44-1.37.76-2,.97-.63.21-1.22.31-1.78.3-.56,0-1.08-.13-1.57-.37s-.95-.59-1.39-1.06c-.6-.65-.95-1.39-1.04-2.23-.09-.84.05-1.68.4-2.54.35-.86.89-1.62,1.61-2.29,1.02-.96,2.02-1.56,2.98-1.83.96-.26,1.92-.27,2.86-.02l-.15,2.95c-.72-.13-1.4-.11-2.03.06-.63.17-1.18.47-1.65.91-.32.3-.57.61-.74.92-.17.31-.24.61-.22.89.02.28.13.53.34.75.17.18.36.29.59.35s.48.05.75-.01c.27-.06.57-.17.89-.32.32-.15.64-.34.96-.56.69-.41,1.35-.74,1.99-.98.63-.24,1.24-.38,1.83-.41.58-.04,1.13.04,1.65.23s.99.51,1.42.97c.69.74,1.1,1.54,1.24,2.41s.01,1.73-.36,2.61c-.37.88-.97,1.7-1.8,2.47Z"/><path class="d" d="m61.51,48.16l-8.33-12.47,2.81-1.88,8.33,12.47-2.81,1.88Zm-2.16-5.7l-1.71-2.57,8.14-5.44,1.71,2.57-8.14,5.44Zm9.99.46l-8.33-12.47,2.81-1.88,8.33,12.47-2.81,1.88Z"/><path class="d" d="m73.65,40.41l-1.21-2.6,2.25-1.05-3.92-8.39-2.25,1.05-1.21-2.6,7.59-3.54,1.21,2.6-2.27,1.06,3.92,8.39,2.27-1.06,1.21,2.6-7.59,3.54Z"/><path class="d" d="m82.7,36.19l-4.34-14.35,6.42-1.94c.92-.28,1.8-.33,2.64-.15s1.58.55,2.22,1.11c.63.56,1.08,1.29,1.35,2.18.26.88.29,1.73.08,2.56s-.62,1.56-1.22,2.19c-.6.63-1.36,1.08-2.27,1.36l-3.32,1,1.54,5.11-3.1.94Zm.77-8.65l3.14-.95c.36-.11.65-.29.88-.53.23-.25.38-.54.44-.87.06-.33.04-.68-.07-1.05-.12-.4-.32-.71-.59-.95s-.6-.39-.98-.45c-.38-.07-.79-.03-1.22.1l-2.77.84,1.17,3.88Zm7.33,6.2l-5.62-5.4,3.15-1.51,6.19,5.81-3.72,1.1Z"/><path class="d" d="m95.41,32.57l-2.04-14.86,10.14-1.39.4,2.91-6.86.94,1.24,9.04,7.05-.97.4,2.91-10.34,1.42Zm.72-6.39l-.38-2.8,7.6-1.04.38,2.8-7.6,1.04Z"/><path class="d" d="m116.77,30.99l2.38-14.8,3.02.49,3.97,9.6-2.01-.35,6.84-7.84,2.92.47-2.38,14.8-3.26-.52.78-4.82c.21-1.3.43-2.46.66-3.47.23-1.02.5-2.02.82-2.99l.21,1.1-5.31,5.89-1.42-.23-3.09-7.2.53-1.02c.02.97-.02,1.96-.12,2.98-.1,1.01-.26,2.22-.49,3.63l-.78,4.82-3.28-.53Z"/><path class="d" d="m132.31,33.58l10.77-12,2.77,1.03.26,16.09-3.19-1.19-.04-8.45c0-.27.02-.59.03-.97.01-.38.02-.77.04-1.18.02-.41.04-.8.06-1.17.02-.37.05-.68.09-.94l.57.19c-.2.28-.4.56-.63.85-.22.29-.45.58-.69.87-.24.29-.47.58-.71.86s-.46.55-.68.82l-5.51,6.34-3.13-1.16Zm3.68-1.9l1.95-2.11,6.41,2.38.14,2.89-8.49-3.16Z"/><path class="d" d="m146.69,39.12l1.15-1.96,12.48-5.21.3,1.57-7.42-4.36,1.57-2.68,9.66,5.68-1.14,1.94-12.44,5.27-.39-1.5,8.09,4.75-1.52,2.59-10.34-6.08Z"/><path class="d" d="m158.02,45.87l9.65-11.48,4.77,4.01c.83.7,1.48,1.48,1.94,2.34.46.86.72,1.76.79,2.68s-.06,1.86-.38,2.79c-.33.93-.84,1.82-1.55,2.66-.72.85-1.5,1.52-2.36,1.99s-1.75.76-2.67.85c-.93.09-1.85-.02-2.77-.32-.92-.3-1.81-.8-2.65-1.51l-4.77-4.01Zm4.15.33l.09-.71,2.39,2.01c.47.39.96.67,1.48.84s1.03.21,1.56.13c.52-.08,1.03-.26,1.52-.57.5-.3.96-.71,1.41-1.24.44-.52.76-1.05.97-1.59.21-.53.31-1.07.3-1.6-.01-.53-.14-1.04-.39-1.52-.25-.48-.61-.92-1.08-1.31l-2.44-2.05.7-.14-6.51,7.74Z"/><path class="d" d="m167.42,53.61l15.24-5.26,1.92,2.25-7.59,14.19-2.21-2.59,4.07-7.4c.14-.23.31-.51.5-.83.19-.32.4-.66.61-1.02s.42-.68.62-.99c.2-.31.37-.57.53-.78l.41.44c-.31.15-.63.3-.96.44s-.68.29-1.03.43c-.35.14-.7.28-1.03.41-.34.13-.67.26-.99.39l-7.9,2.87-2.17-2.54Zm4.14.12l2.73-.9,4.44,5.19-1.28,2.59-5.89-6.88Z"/><path class="d" d="m182.19,73.13l13.8-5.86,1.2,2.82-6.02,8.47-.78-1.88,10.28,1.62,1.15,2.72-13.8,5.86-1.29-3.04,4.5-1.91c1.21-.51,2.31-.94,3.29-1.29.98-.35,1.97-.65,2.97-.9l-.82.77-7.82-1.36-.56-1.32,4.45-6.45,1.15-.09c-.81.53-1.67,1.03-2.58,1.48-.91.46-2.02.96-3.33,1.52l-4.5,1.91-1.3-3.06Z"/><path class="d" d="m188.26,87.65l9.17,3.94-1.17,2.91-7.21-3.01-.8-3.84Zm2.18,10.49l5.63-5.89,6.9-7.54.84,4.05-5.56,5.79-6.97,7.64-.84-4.05Zm6.47-2.96l1.11-2.88,7.1,2.79.8,3.84-9.01-3.75Z"/><path class="d" d="m196.51,100.93l2.93-.23.56,7.09-2.93.23-.56-7.09Z"/><path class="d" d="m191.23,114.66c.05-1.1.32-2.09.81-2.97.49-.88,1.18-1.58,2.06-2.11l1.93,1.91c-.7.57-1.18,1.09-1.43,1.57-.26.48-.4,1.02-.43,1.62-.02.48.06.92.24,1.31.18.39.44.7.78.94.34.24.72.37,1.15.38.47.02.89-.07,1.26-.27.37-.21.66-.49.89-.85.22-.36.35-.78.37-1.25.01-.3,0-.59-.03-.86-.03-.27-.11-.57-.23-.9-.12-.33-.3-.73-.53-1.21l2.06-1.41,6.51,1.22-.39,8.5-2.91-.13.31-6.81.99.86-4.66-.9.54-1.09c.19.24.36.55.51.95.15.39.27.81.36,1.26.09.45.12.88.1,1.31-.04.96-.3,1.79-.76,2.51s-1.08,1.27-1.87,1.66c-.78.39-1.67.57-2.65.52-.98-.05-1.86-.33-2.63-.85-.77-.52-1.37-1.21-1.79-2.07-.43-.86-.61-1.8-.57-2.85Z"/><path class="d" d="m111.3,8.45c56.8,0,102.85,46.05,102.85,102.85s-46.05,102.85-102.85,102.85S8.45,168.1,8.45,111.3,54.5,8.45,111.3,8.45m0-3.45c-14.35,0-28.27,2.81-41.38,8.35-12.66,5.35-24.03,13.02-33.79,22.78-9.76,9.76-17.43,21.13-22.78,33.79-5.54,13.11-8.35,27.03-8.35,41.38s2.81,28.27,8.35,41.38c5.35,12.66,13.02,24.03,22.78,33.79,9.76,9.76,21.13,17.43,33.79,22.78,13.11,5.54,27.03,8.35,41.38,8.35s28.27-2.81,41.38-8.35c12.66-5.35,24.03-13.02,33.79-22.78,9.76-9.76,17.43-21.13,22.78-33.79,5.54-13.11,8.35-27.03,8.35-41.38s-2.81-28.27-8.35-41.38c-5.35-12.66-13.02-24.03-22.78-33.79-9.76-9.76-21.13-17.43-33.79-22.78-13.11-5.54-27.03-8.35-41.38-8.35h0Z"/><path class="g" d="m70.33,198c-1.01-.48-1.85-1.09-2.53-1.84-.68-.75-1.19-1.58-1.51-2.51-.33-.92-.46-1.89-.4-2.91.06-1.02.34-2.03.81-3.04s1.09-1.86,1.84-2.55c.75-.7,1.59-1.21,2.51-1.55.93-.34,1.89-.48,2.9-.43,1.01.05,2.02.32,3.03.79.99.47,1.83,1.08,2.5,1.82.67.75,1.17,1.58,1.5,2.51.33.93.46,1.9.39,2.92-.06,1.02-.34,2.03-.81,3.04-.48,1.01-1.09,1.85-1.83,2.54-.75.69-1.58,1.2-2.51,1.54-.93.34-1.89.48-2.89.43-1-.05-2-.31-3-.78Zm1.37-2.88c.55.26,1.11.4,1.68.41.56.01,1.1-.08,1.62-.29.52-.21.99-.52,1.41-.93.43-.41.78-.92,1.06-1.51s.45-1.19.5-1.78c.05-.59,0-1.16-.17-1.69-.16-.54-.43-1.02-.8-1.44-.37-.43-.83-.77-1.38-1.03-.56-.26-1.12-.4-1.69-.42-.57-.02-1.11.08-1.63.29-.52.21-1,.52-1.43.94-.43.41-.79.91-1.07,1.51-.38.8-.55,1.59-.51,2.37.04.78.27,1.48.67,2.11.41.63.98,1.12,1.73,1.47Z"/><path class="g" d="m83.85,203.15l-1.08-15.64,3.36.78.5,8.54c.01.44.01.9-.01,1.37-.02.47-.05.91-.08,1.32s-.06.73-.1.96l-.51-.1c.26-.55.47-1.03.64-1.41.16-.39.32-.73.47-1.03.15-.3.32-.6.5-.89l3.68-5.44,2.67.62.85,6.49c.07.47.11.91.12,1.33s.01.81,0,1.18c-.01.37-.04.73-.08,1.09l-.48-.02c.11-.27.19-.51.27-.72s.14-.41.2-.59c.06-.18.13-.37.21-.56.07-.19.17-.4.28-.65.12-.24.26-.53.44-.85l4.16-7.43,3.32.77-7.85,13.57-2.46-.57-1.58-9.38.34.15-5.27,7.73-2.53-.59Z"/><path class="g" d="m104.02,206.85l.24-14.99,3.02.05,7.98,11.16-.62-.03c-.09-.76-.16-1.49-.22-2.2-.06-.71-.09-1.46-.1-2.26,0-.8,0-1.69.01-2.68l.06-3.88,3.28.05-.24,14.99-3.06-.05-8.17-11.32.88.06c.08.92.15,1.67.2,2.27.05.6.08,1.11.1,1.51.02.41.04.78.05,1.1,0,.33.01.68,0,1.05l-.08,5.21-3.32-.05Z"/><path class="g" d="m121.76,206.52l-2.38-14.8,10.11-1.63.47,2.9-6.83,1.1,1.45,9.01,7.02-1.13.47,2.9-10.3,1.66Zm.57-6.41l-.45-2.79,7.57-1.22.45,2.79-7.57,1.22Z"/><path class="g" d="m135.33,204.09l-4.6-14.27,6.38-2.06c.91-.29,1.79-.36,2.64-.2s1.59.52,2.24,1.07c.64.55,1.11,1.27,1.39,2.15.28.87.32,1.72.13,2.56s-.59,1.57-1.18,2.21c-.59.64-1.34,1.11-2.25,1.4l-3.3,1.06,1.64,5.08-3.08.99Zm.61-8.66l3.12-1.01c.35-.11.64-.3.87-.55s.37-.55.43-.88c.06-.33.03-.68-.09-1.05-.13-.39-.33-.71-.61-.94-.28-.23-.61-.38-.98-.44s-.79-.02-1.22.12l-2.75.89,1.24,3.85Zm7.45,6.06l-5.71-5.29,3.12-1.57,6.29,5.69-3.7,1.17Z"/><path class="g" d="m154.02,197.15c-1.28.64-2.48.95-3.61.94-1.13-.01-2.23-.29-3.29-.83l.83-3.04c1.05.54,1.97.82,2.74.81s1.51-.18,2.21-.53c.38-.19.7-.41.95-.66.25-.25.41-.52.49-.79.08-.28.05-.55-.08-.82-.1-.2-.24-.36-.41-.48-.17-.12-.37-.2-.6-.24-.23-.04-.48-.07-.76-.06-.28,0-.57.04-.88.1s-.63.14-.97.23c-.8.22-1.53.34-2.19.36s-1.26-.05-1.8-.22-1-.43-1.4-.8c-.4-.37-.74-.84-1.03-1.42-.39-.79-.51-1.6-.36-2.43s.52-1.6,1.11-2.32,1.31-1.3,2.2-1.74c1.25-.62,2.38-.93,3.38-.9s1.91.29,2.74.8l-.98,2.79c-.66-.33-1.31-.5-1.96-.52-.65-.02-1.26.11-1.84.4-.4.2-.72.42-.97.67s-.4.52-.47.79c-.06.28-.02.55.11.82.11.22.26.38.46.5.2.12.44.18.72.2.28.02.6,0,.94-.05.35-.05.71-.14,1.08-.26.78-.2,1.51-.32,2.19-.37.68-.05,1.3,0,1.87.12s1.07.36,1.52.69c.44.33.81.78,1.09,1.34.45.91.62,1.8.5,2.66-.12.87-.48,1.66-1.09,2.4-.61.73-1.42,1.35-2.43,1.86Z"/></svg>